<svg xmlns="http://www.w3.org/2000/svg" viewBox="0 0 300 120" role="img" aria-label="NX logo">
  <rect width="300" height="120" fill="none"/>
  <g fill="#76C300">
    <polygon points="18,16 72,16 122,76 122,16 168,16 168,104 115,104 64,44 64,104 18,104"/>
    <rect x="180" y="16" width="102" height="18" rx="3"/>
    <rect x="180" y="86" width="102" height="18" rx="3"/>
    <polygon points="180,34 282,34 282,52 180,52"/>
    <polygon points="180,68 282,68 282,86 180,86"/>
    <rect x="180" y="52" width="56" height="16" rx="3"/>
    <rect x="238" y="52" width="44" height="16" rx="3"/>
    <g fill="#ffffff" opacity="0.92">
      <rect x="214" y="36" width="9" height="48"/>
      <rect x="227" y="36" width="9" height="48"/>
      <rect x="240" y="36" width="9" height="48"/>
      <rect x="253" y="36" width="9" height="48"/>
      <rect x="266" y="36" width="9" height="48"/>
    </g>
  </g>
</svg>
